<svg width="129" height="131" viewBox="0 0 129 131" fill="none" xmlns="http://www.w3.org/2000/svg">
<path d="M65.4062 53.5151V78.8456H100.607C99.0614 86.9918 94.4229 93.8895 87.466 98.5274L108.694 114.998C121.061 103.582 128.197 86.8139 128.197 66.8945C128.197 62.2567 127.781 57.7967 127.008 53.5158L65.4062 53.5151Z" fill="#4285F4"/>
<path d="M28.7504 77.8569L23.9628 81.5218L7.01611 94.7219C17.7785 116.068 39.837 130.815 65.4051 130.815C83.0646 130.815 97.8702 124.988 108.692 114.998L87.4649 98.5276C81.6376 102.452 74.2049 104.831 65.4051 104.831C48.3993 104.831 33.9507 93.3548 28.7772 77.8947L28.7504 77.8569Z" fill="#34A853"/>
<path d="M7.0159 36.0928C2.55656 44.8927 0 54.8228 0 65.4067C0 75.9906 2.55656 85.9208 7.0159 94.7207C7.0159 94.7797 28.779 77.8337 28.779 77.8337C27.4709 73.9093 26.6977 69.7473 26.6977 65.406C26.6977 61.0648 27.4709 56.9028 28.779 52.9784L7.0159 36.0928Z" fill="#FBBC05"/>
<path d="M65.4064 26.044C75.0392 26.044 83.6015 29.3737 90.4395 35.7956L109.17 17.0656C97.8125 6.48167 83.0666 0 65.4064 0C39.8383 0 17.7785 14.6869 7.01611 36.0929L28.7786 52.9799C33.9514 37.5199 48.4006 26.044 65.4064 26.044Z" fill="#EA4335"/>
</svg>
